<?xml version="1.0" encoding="utf-8"?>
<!-- Generator: Adobe Illustrator 21.0.1, SVG Export Plug-In . SVG Version: 6.00 Build 0)  -->
<svg version="1.1" xmlns="http://www.w3.org/2000/svg" xmlns:xlink="http://www.w3.org/1999/xlink" x="0px" y="0px"
	 viewBox="0 0 120.3 89.3" style="enable-background:new 0 0 120.3 89.3;" xml:space="preserve">
<style type="text/css">
	.st0{fill:url(#SVGID_1_);}
	.st1{opacity:0.82;}
	.st2{fill:#9FCBCF;}
	.st3{opacity:6.000000e-02;fill:#010101;}
	.st4{fill:#A5D2D6;}
	.st5{opacity:3.000000e-02;fill:#010101;}
	.st6{fill:#9AC3C7;}
	.st7{fill:#93BBBF;}
	.st8{opacity:0.1;fill:#010101;}
	.st9{fill:#FFFFFF;}
	.st10{fill:url(#SVGID_2_);}
	.st11{fill:url(#SVGID_3_);}
	.st12{fill:#8EC641;}
	.st13{fill:#5A5146;}
	.st14{opacity:0.2;fill:#010101;}
	.st15{fill:#736759;}
	.st16{opacity:0.15;fill:#010101;}
	.st17{fill:#63BC4B;}
	.st18{fill:#968A7D;}
	.st19{opacity:0.2;}
	.st20{opacity:0.4;fill:#010101;}
	.st21{fill:#5D9E43;}
	.st22{fill:#64BDE1;}
	.st23{fill:#78C8A8;}
	.st24{fill:#019547;}
	.st25{fill:#726452;}
	.st26{fill:#02815A;}
	.st27{fill:#74A340;}
	.st28{opacity:0.1;}
	.st29{fill:#010101;}
	.st30{fill:#6BA342;}
	.st31{fill:#5A4B43;}
	.st32{fill:#046938;}
	.st33{fill:#07A14A;}
	.st34{fill:#F26724;}
	.st35{fill:#E0E1E0;}
	.st36{fill:url(#SVGID_4_);}
	.st37{fill:url(#SVGID_5_);}
	.st38{fill:#88C9C9;}
	.st39{opacity:0.71;fill:#FFFFFF;}
	.st40{fill:#7BB6B6;}
	.st41{fill:#A7DCDD;}
	.st42{fill:#81C0C0;}
	.st43{fill:none;}
	.st44{fill:#B4E1E1;}
	.st45{fill:#709D40;}
	.st46{fill:#BBDFE0;}
	.st47{fill:#79BFBF;}
	.st48{fill:#402F24;}
	.st49{fill:#D6D7D5;}
	.st50{fill:url(#SVGID_6_);}
	.st51{fill:#E3E3E3;}
</style>
<g id="Front">
	<g>
		<g>
			<path class="st15" d="M97.3,65.5c0,0,1.7,7.4,3.7,12.1l0.3,11.7l4.8-0.1l-0.2-11.5c0,0,1.6-4.8,3.6-12.3l-3.7,0
				c0,0-0.1,8.4-2.7,9.7c0,0-2.5-3.1-2-8.8L97.3,65.5z"/>
			<g class="st28">
				<path class="st29" d="M100.9,66.4l-3.7-0.9c0,0,0.4,1.4,0.8,3c1.2,0.5,1.6,0.8,2.9,0.9C100.9,68.6,100.8,67.5,100.9,66.4z"/>
				<path class="st29" d="M105.6,65.4c0,0,0,1.9-0.3,4.1c1.4-0.2,1.9-0.2,3.1-0.7c0.3-0.9,0.7-2.4,0.9-3.5L105.6,65.4z"/>
			</g>
			<g class="st19">
				<path class="st29" d="M100.5,66.4c-0.5,5.7,2,8.8,2,8.8c0.2,0.1,0.3,0.1,0.4,0c-0.7-0.9-2.4-3.9-2-8.8l-3.7-0.9c0,0,0,0,0,0.1
					L100.5,66.4z"/>
				<path class="st29" d="M109.4,65.4l-0.4,0c-2,7.5-3.6,12.3-3.6,12.3l0.2,11.5l0.4,0l-0.2-11.5C105.8,77.7,107.5,72.9,109.4,65.4z
					"/>
			</g>
			<g>
				<path class="st12" d="M120.3,42.8c0.2,14-4.4,25.3-16.8,25.5c-11,0.1-17.3-11.1-17.4-25.1c-0.2-14,7.3-30.9,16.7-31
					C114.4,12.1,120.1,28.9,120.3,42.8z"/>
				<path class="st8" d="M109.7,14.4c5.1,6,7.7,16.5,7.8,25.8c0.2,14-4.4,25.3-16.8,25.5c-3.3,0-6.1-0.9-8.5-2.6
					c2.8,3.3,6.6,5.3,11.3,5.2c12.4-0.2,17-11.5,16.8-25.5C120.2,32,116.7,19.4,109.7,14.4z"/>
			</g>
		</g>
		<g>
			<g>
				<polygon class="st18" points="9.2,79.8 6.4,79.8 6.4,63.9 8.5,63.8 				"/>
				<polygon class="st8" points="8.5,63.8 7.7,63.8 8.3,79.8 9.2,79.8 				"/>
			</g>
			<path class="st14" d="M6.4,65.4l0,1.1c0,0,0.9,0.9,2.2,0l0-1.2L6.4,65.4z"/>
			<g>
				<path class="st30" d="M6.8,35c0,0-15.5,31.1,0.4,30.9C24.4,65.7,6.8,35,6.8,35z"/>
				<path class="st8" d="M6.8,35c0,0-0.2,0.3-0.4,0.9c4,7.9,12.4,27.5-1.3,27.6c-1.7,0-3.1-0.3-4.1-1c1,2.1,3,3.4,6.2,3.3
					C24.4,65.7,6.8,35,6.8,35z"/>
			</g>
		</g>
		<g>
			<g>
				
					<rect x="50" y="71.5" transform="matrix(0.9999 -1.263473e-02 1.263473e-02 0.9999 -0.9752 0.6622)" class="st31" width="3.9" height="12"/>
				
					<rect x="52.6" y="71.5" transform="matrix(0.9999 -1.264557e-02 1.264557e-02 0.9999 -0.9757 0.6789)" class="st14" width="1.3" height="12"/>
			</g>
			<path class="st14" d="M49.9,73.7l0,1.8c0,0,1.8,0.9,3.9,0l-0.1-2.1L49.9,73.7z"/>
			<g>
				<path class="st32" d="M66,51.4l6.6-0.1c-5-3.1-9.1-8.7-12.2-14.9l6.5-0.1c-4.7-3-8.3-9-10.8-15.1l5-0.1C53.9,16.5,51,0,51,0
					s-1.6,16.3-9.6,21.5l5.5-0.1c-2.3,6-5.8,12.1-11,15.3l7.3-0.1c-3,6.1-7.1,11.8-12.6,15.2l7.7-0.1c-4.2,7.7-9.6,14.7-16.6,19
					c0,0,13.6,4,30.2,3.8C70.7,74.3,82.1,70,82.1,70C75.7,66,70.3,59.2,66,51.4z"/>
				<path class="st8" d="M66,51.4l6.6-0.1c-5-3.1-9.1-8.7-12.2-14.9l6.5-0.1c-4.7-3-8.3-9-10.8-15.1l5-0.1C53.9,16.5,51,0,51,0
					c14,77.9-9.7,69.6-23.7,66.5c-1.8,1.6-3.6,3.1-5.6,4.3c0,0,13.6,4,30.2,3.8C70.7,74.3,82.1,70,82.1,70
					C75.7,66,70.3,59.2,66,51.4z"/>
			</g>
		</g>
		<g>
			<path class="st33" d="M66.1,82.3c0.2-3.2,4.5-5.6,9.5-5.2c0.5,0,0.9,0.1,1.4,0.2c1.9-1.9,5.5-3.1,9.4-2.8
				c5.8,0.4,10.3,3.8,10,7.5c0,0.1,0,0.2,0,0.2c2.9,0.8,4.9,2.8,4.8,4.9l-34.5-2.4C66.3,83.9,66.1,83.1,66.1,82.3z"/>
			<path class="st8" d="M96.4,82.2c0-0.1,0-0.2,0-0.2c0.2-2.9-2.5-5.6-6.5-6.8c2.2,2.6,5,7.3,1.6,11.3l9.6,0.7
				C101.3,85,99.3,83,96.4,82.2z"/>
		</g>
	</g>
</g>
<g id="Back">
</g>
</svg>
