<?xml version="1.0" encoding="utf-8"?>
<!-- Generator: Adobe Illustrator 21.0.1, SVG Export Plug-In . SVG Version: 6.00 Build 0)  -->
<svg version="1.1" xmlns="http://www.w3.org/2000/svg" xmlns:xlink="http://www.w3.org/1999/xlink" x="0px" y="0px"
	 viewBox="0 0 60.4 83.5" style="enable-background:new 0 0 60.4 83.5;" xml:space="preserve">
<style type="text/css">
	.st0{fill:url(#SVGID_1_);}
	.st1{opacity:0.82;}
	.st2{fill:#9FCBCF;}
	.st3{opacity:6.000000e-02;fill:#010101;}
	.st4{fill:#A5D2D6;}
	.st5{opacity:3.000000e-02;fill:#010101;}
	.st6{fill:#9AC3C7;}
	.st7{fill:#93BBBF;}
	.st8{opacity:0.1;fill:#010101;}
	.st9{fill:#FFFFFF;}
	.st10{fill:url(#SVGID_2_);}
	.st11{fill:url(#SVGID_3_);}
	.st12{fill:#8EC641;}
	.st13{fill:#5A5146;}
	.st14{opacity:0.2;fill:#010101;}
	.st15{fill:#736759;}
	.st16{opacity:0.15;fill:#010101;}
	.st17{fill:#63BC4B;}
	.st18{fill:#968A7D;}
	.st19{opacity:0.2;}
	.st20{opacity:0.4;fill:#010101;}
	.st21{fill:#5D9E43;}
	.st22{fill:#64BDE1;}
	.st23{fill:#78C8A8;}
	.st24{fill:#019547;}
	.st25{fill:#726452;}
	.st26{fill:#02815A;}
	.st27{fill:#74A340;}
	.st28{opacity:0.1;}
	.st29{fill:#010101;}
	.st30{fill:#6BA342;}
	.st31{fill:#5A4B43;}
	.st32{fill:#046938;}
	.st33{fill:#07A14A;}
	.st34{fill:#F26724;}
	.st35{fill:#E0E1E0;}
	.st36{fill:url(#SVGID_4_);}
	.st37{fill:url(#SVGID_5_);}
	.st38{fill:#88C9C9;}
	.st39{opacity:0.71;fill:#FFFFFF;}
	.st40{fill:#7BB6B6;}
	.st41{fill:#A7DCDD;}
	.st42{fill:#81C0C0;}
	.st43{fill:none;}
	.st44{fill:#B4E1E1;}
	.st45{fill:#709D40;}
	.st46{fill:#BBDFE0;}
	.st47{fill:#79BFBF;}
	.st48{fill:#402F24;}
	.st49{fill:#D6D7D5;}
	.st50{fill:url(#SVGID_6_);}
	.st51{fill:#E3E3E3;}
</style>
<g id="Front">
	<g>
		<g>
			<g>
				
					<rect x="28.3" y="71.5" transform="matrix(0.9999 -1.263473e-02 1.263473e-02 0.9999 -0.9769 0.3875)" class="st31" width="3.9" height="12"/>
				
					<rect x="30.8" y="71.5" transform="matrix(0.9999 -1.264557e-02 1.264557e-02 0.9999 -0.9775 0.404)" class="st14" width="1.3" height="12"/>
			</g>
			<path class="st14" d="M28.2,73.7l0,1.8c0,0,1.8,0.9,3.9,0L32,73.5L28.2,73.7z"/>
			<g>
				<path class="st32" d="M44.3,51.4l6.6-0.1c-5-3.1-9.1-8.7-12.2-14.9l6.5-0.1c-4.7-3-8.3-9-10.8-15.1l5-0.1
					C32.2,16.5,29.3,0,29.3,0s-1.6,16.3-9.6,21.5l5.5-0.1c-2.3,6-5.8,12.1-11,15.3l7.3-0.1c-3,6.1-7.1,11.8-12.6,15.2l7.7-0.1
					c-4.2,7.7-9.6,14.7-16.6,19c0,0,13.6,4,30.2,3.8C48.9,74.3,60.4,70,60.4,70C53.9,66,48.6,59.2,44.3,51.4z"/>
				<path class="st8" d="M44.3,51.4l6.6-0.1c-5-3.1-9.1-8.7-12.2-14.9l6.5-0.1c-4.7-3-8.3-9-10.8-15.1l5-0.1
					C32.2,16.5,29.3,0,29.3,0c14,77.9-9.7,69.6-23.7,66.5C3.9,68.1,2,69.6,0,70.8c0,0,13.6,4,30.2,3.8C48.9,74.3,60.4,70,60.4,70
					C53.9,66,48.6,59.2,44.3,51.4z"/>
			</g>
		</g>
	</g>
</g>
<g id="Back">
</g>
</svg>
