<?xml version="1.0" encoding="utf-8"?>
<!-- Generator: Adobe Illustrator 21.0.1, SVG Export Plug-In . SVG Version: 6.00 Build 0)  -->
<svg version="1.1" xmlns="http://www.w3.org/2000/svg" xmlns:xlink="http://www.w3.org/1999/xlink" x="0px" y="0px"
	 viewBox="0 0 34.3 77.1" style="enable-background:new 0 0 34.3 77.1;" xml:space="preserve">
<style type="text/css">
	.st0{fill:url(#SVGID_1_);}
	.st1{opacity:0.82;}
	.st2{fill:#9FCBCF;}
	.st3{opacity:6.000000e-02;fill:#010101;}
	.st4{fill:#A5D2D6;}
	.st5{opacity:3.000000e-02;fill:#010101;}
	.st6{fill:#9AC3C7;}
	.st7{fill:#93BBBF;}
	.st8{opacity:0.1;fill:#010101;}
	.st9{fill:#FFFFFF;}
	.st10{fill:url(#SVGID_2_);}
	.st11{fill:url(#SVGID_3_);}
	.st12{fill:#8EC641;}
	.st13{fill:#5A5146;}
	.st14{opacity:0.2;fill:#010101;}
	.st15{fill:#736759;}
	.st16{opacity:0.15;fill:#010101;}
	.st17{fill:#63BC4B;}
	.st18{fill:#968A7D;}
	.st19{opacity:0.2;}
	.st20{opacity:0.4;fill:#010101;}
	.st21{fill:#5D9E43;}
	.st22{fill:#64BDE1;}
	.st23{fill:#78C8A8;}
	.st24{fill:#019547;}
	.st25{fill:#726452;}
	.st26{fill:#02815A;}
	.st27{fill:#74A340;}
	.st28{opacity:0.1;}
	.st29{fill:#010101;}
	.st30{fill:#6BA342;}
	.st31{fill:#5A4B43;}
	.st32{fill:#046938;}
	.st33{fill:#07A14A;}
	.st34{fill:#F26724;}
	.st35{fill:#E0E1E0;}
	.st36{fill:url(#SVGID_4_);}
	.st37{fill:url(#SVGID_5_);}
	.st38{fill:#88C9C9;}
	.st39{opacity:0.71;fill:#FFFFFF;}
	.st40{fill:#7BB6B6;}
	.st41{fill:#A7DCDD;}
	.st42{fill:#81C0C0;}
	.st43{fill:none;}
	.st44{fill:#B4E1E1;}
	.st45{fill:#709D40;}
	.st46{fill:#BBDFE0;}
	.st47{fill:#79BFBF;}
	.st48{fill:#402F24;}
	.st49{fill:#D6D7D5;}
	.st50{fill:url(#SVGID_6_);}
	.st51{fill:#E3E3E3;}
</style>
<g id="Front">
	<g>
		<g>
			<path class="st15" d="M11.2,53.3c0,0,1.7,7.4,3.7,12.1l0.3,11.7L20,77l-0.2-11.5c0,0,1.6-4.8,3.6-12.3l-3.7,0
				c0,0-0.1,8.4-2.7,9.7c0,0-2.5-3.1-2-8.8L11.2,53.3z"/>
			<g class="st28">
				<path class="st29" d="M14.9,54.2l-3.7-0.9c0,0,0.4,1.4,0.8,3c1.2,0.5,1.6,0.8,2.9,0.9C14.8,56.3,14.8,55.3,14.9,54.2z"/>
				<path class="st29" d="M19.6,53.2c0,0,0,1.9-0.3,4.1c1.4-0.2,1.9-0.2,3.1-0.7c0.3-0.9,0.7-2.4,0.9-3.5L19.6,53.2z"/>
			</g>
			<g class="st19">
				<path class="st29" d="M14.4,54.2c-0.5,5.7,2,8.8,2,8.8c0.2,0.1,0.3,0.1,0.4,0c-0.7-0.9-2.4-3.9-2-8.8l-3.7-0.9c0,0,0,0,0,0.1
					L14.4,54.2z"/>
				<path class="st29" d="M23.3,53.1l-0.4,0c-2,7.5-3.6,12.3-3.6,12.3L19.5,77l0.4,0l-0.2-11.5C19.8,65.5,21.4,60.7,23.3,53.1z"/>
			</g>
			<g>
				<path class="st12" d="M34.2,30.6c0.2,14-4.4,25.3-16.8,25.5C6.4,56.2,0.2,45,0,31S7.3,0.1,16.7,0C28.3-0.1,34.1,16.6,34.2,30.6z
					"/>
				<path class="st8" d="M23.6,2.2c5.1,6,7.7,16.5,7.8,25.8c0.2,14-4.4,25.3-16.8,25.5c-3.3,0-6.1-0.9-8.5-2.6
					c2.8,3.3,6.6,5.3,11.3,5.2c12.4-0.2,17-11.5,16.8-25.5C34.1,19.7,30.6,7.2,23.6,2.2z"/>
			</g>
		</g>
	</g>
</g>
<g id="Back">
</g>
</svg>
