<svg width="750" height="300" xmlns="http://www.w3.org/2000/svg">
 <!-- Created with Method Draw - http://github.com/duopixel/Method-Draw/ -->

 <g>
  <title>background</title>
  <rect fill="none" id="canvas_background" height="302" width="752" y="-1" x="-1"/>
  <g display="none" overflow="visible" y="0" x="0" height="100%" width="100%" id="canvasGrid">
   <rect fill="url(#gridpattern)" stroke-width="0" height="480" width="640"/>
  </g>
 </g>
 <g>
  <title>Layer 1</title>
  <path d="m24.5,205c0,0 -1.689259,-0.080246 -1,-3c0.513744,-2.176254 4.240429,-7.337814 7,-14c1.951309,-4.710876 5.210052,-10.850754 8,-15c3.253609,-4.838806 6.88929,-11.03804 9,-17c2.851418,-8.054153 8.347176,-16.833817 13,-27c5.410095,-11.820778 8.429802,-23.554268 13,-34c3.781448,-8.642952 10.072922,-17.95488 15,-26c3.045326,-4.972527 5.385094,-10.372013 8,-14c0.826904,-1.14727 1,1 1,3c0,4 0,11 0,17c0,8 -0.689278,18.039978 -2,27c-1.618301,11.062599 -2,22 -2,34c0,12 0,22 0,30c0,8 0,14 0,19c0,6 0,9 0,13c0,1 -0.707108,2.292892 0,3c1.414215,1.414215 4.889786,-4.057037 7,-8c3.804245,-7.108292 8.583435,-16.753052 13,-28c3.467606,-8.830383 9.269272,-20.885086 13,-30c3.23645,-7.907295 5.14859,-14.945847 8,-23c2.110718,-5.961952 4.345184,-13.176971 6,-18c1.45137,-4.230072 3.789856,-10.078438 5,-13c0.855713,-2.065857 2.770248,-6.026749 3,-7c0.513748,-2.176254 2,-4 2,-2c0,3 0.689255,6.080254 0,9c-1.541229,6.528755 -5.345444,10.808342 -8,16c-3.467102,6.7808 -3.607025,12.17572 -6,17c-2.591064,5.22364 -5.468735,10.539757 -7,18c-0.603195,2.938736 -1.118942,7.215393 -3,13c-1.38298,4.25293 -3,11 -3,14c0,3 0,6 0,9c0,3 0,4 0,7c0,1 -0.38269,3.076126 0,4c0.541199,1.306564 2,1 3,1c1,0 3,0 4,0c2,0 4.054138,0.567322 7,0c5.287994,-1.018372 9.734283,-6.278046 16,-12c5.767258,-5.266754 13,-10 18,-15c5,-5 10.07193,-9.953278 12,-13c3.118103,-4.927216 3.173096,-5.852737 4,-7c1.307449,-1.813995 1,-1 1,1c0,3 -1.432678,6.054138 -2,9c-1.018372,5.287994 -0.968552,9.412079 -3,13c-2.090347,3.69194 -3.972519,7.647491 -5,12c-0.689255,2.919754 0,7 0,8c0,3 0,6 0,7c0,2 0,3 1,3c1,0 4.372009,0.614899 8,-2c2.29454,-1.653809 7.477325,-5.477325 13,-11c5.522675,-5.522675 9.559143,-13.609711 15,-22c5.601715,-8.638336 9.865265,-19.520386 14,-28c5.129944,-10.52063 7.358154,-20.807152 11,-28c4.448853,-8.786789 6.913239,-16.033073 10,-24c1.945557,-5.021439 4.493469,-8.878555 5,-12c0.48056,-2.961262 1.458801,-4.693436 2,-6c0.38269,-0.923878 0,0 0,4c0,6 0.308746,9.0718 -1,14c-1.623322,6.112679 -2.199097,14.06456 -3,19c-1.013092,6.242889 -4.600952,12.832123 -6,19c-1.783447,7.862526 -2.662323,14.066147 -4,20c-1.600983,7.101898 -4.761383,12.044678 -6,18c-0.8396,4.036713 -2.144287,8.934143 -3,11c-1.210144,2.92157 -1.486267,4.823746 -2,7c-0.459503,1.946503 0,4 0,5c0,1 -1,4 -1,6c0,1 0,2 0,3c0,2 0,3 2,3c2,0 5.186005,0.307449 7,-1c2.294525,-1.653809 5.186005,-3.692551 7,-5c2.294525,-1.653809 3.692535,-4.186005 5,-6c0.826904,-1.147263 1,-3 1,-5c0,-2 0,-3 1,-4c1,-1 1.51944,-2.038742 2,-5c0.506531,-3.121445 0.266907,-7.044952 1,-13c0.503784,-4.092209 1,-7 1,-8c0,-2 0.707092,-3.292892 0,-4c-0.707092,-0.707108 -3.128723,0.869354 -6,0c-3.450836,-1.04483 -7,-3 -11,-3c-6,0 -9.937958,-0.498291 -16,-1c-3.986374,-0.329926 -11.907791,-2.496223 -16,-3c-2.977524,-0.366547 -6,0 -8,0c-1,0 -3,-1 -3,0c0,4 8,0 16,0c8,0 16,0 26,0c8,0 16,0 21,0c4,0 6.878571,-0.493462 10,-1c0.987091,-0.160179 2,0 3,0c1,0 3,0 4,0c2,0 4,0 7,0c3,0 4.309998,0.662506 7,-1c1.203003,-0.7435 1.693451,-1.458801 3,-2c0.923889,-0.382683 1,-2 1,-3c0,-2 -0.026764,-3.229752 -1,-3c-4.352509,1.027489 -8.686798,4.275505 -14,10c-5.852051,6.305038 -9.19577,12.891708 -13,20c-3.165314,5.914459 -6.23172,9.927673 -8,16c-1.152771,3.958679 -1,6 -1,8c0,2 0,5 0,6c0,2 -0.285889,4.21167 2,7c0.896606,1.093674 1.823761,3.486252 4,4c0.973236,0.229752 3,0 5,0c2,0 5,0 6,0c4,0 9.707916,-3.380569 14,-9c4.893738,-6.407135 7.787415,-14.558777 12,-23c6.219482,-12.462662 7.908325,-22.25563 11,-33c2.978302,-10.350349 6.426483,-20.915726 8,-30c1.376007,-7.94397 2,-17 2,-22c0,-5 0,-9 0,-12c0,-2 -0.752563,1.010223 -1,4c-0.501709,6.062035 -4.324799,13.908257 -7,24c-3.41864,12.89624 -4.591095,25.044861 -6,36c-1.551788,12.066147 -3.305969,22.948746 -5,34c-1.221588,7.969177 -3,15 -3,20c0,3 0,6 0,7c0,1 0,-1 0,-4c0,-4 2.918915,-9.34082 7,-16c3.979462,-6.493362 7.846283,-14.378143 10,-19c2.704559,-5.803909 7,-9 8,-10c1,-1 2,0 3,4c1,4 0.662323,9.066147 2,15c1.600983,7.101898 2,14 2,22c0,7 0,12 0,16c0,3 -1,7 0,7c3,0 0.497559,-5.925797 1,-11c0.197083,-1.990265 2.897369,-6.56134 5,-12c1.838684,-4.755966 4.579712,-11.156876 7,-17c2.567108,-6.197571 5.847961,-11.079697 8,-15c2.805908,-5.11145 3.837708,-8.837723 7,-12c1.581146,-1.581139 1.693451,-2.458801 3,-3c0.923889,-0.382683 1.61731,1.076118 2,2c0.541199,1.306564 2.0979,2.824432 4,4c0.850647,0.525726 1,1 2,2c1,1 1.61731,1.076126 2,2c0.541199,1.306564 2.770233,3.026749 3,4c0.513733,2.176254 3.972504,4.647491 5,9c0.229767,0.973251 2.486267,4.823746 3,7c0.68927,2.919754 0,5 0,7c0,1 0,3 0,5c0,2 1.148041,4.228363 0,7c-1.623596,3.919693 -4.705475,6.346191 -7,8c-3.627991,2.614899 -5.386871,3.917603 -8,5c-0.923889,0.38269 -4,0 -5,0c-3,0 -4.513,0.406006 -6,-2c-1.662506,-2.689987 -3.048676,-5.289124 -5,-10c-1.379791,-3.3311 -5.188354,-7.943665 -6,-11c-1.308746,-4.928207 -2,-11 -2,-16c0,-4 0,-8 0,-12c0,-5 -1.913422,-8.3806 0,-13c1.082397,-2.613129 1.693451,-4.458801 3,-5c0.923889,-0.382683 1,-1 2,-1c1,0 2,0 3,0c1,0 2.152252,-0.765366 4,0c2.613129,1.08239 4,3 6,5c2,2 4,4 6,8c2,4 3.968536,8.412079 6,12c1.393555,2.461304 3,5 3,8c0,3 1,4 1,7c0,2 2,5 2,8c0,1 0.496216,2.907791 1,7c0.244354,1.985016 0,4 0,7c0,1 0.234619,3.152237 1,5c1.082397,2.613129 2,3 2,5c0,2 1.152252,4.765366 3,4c2.613129,-1.082397 5.371338,-4.74675 8,-9c3.526703,-5.706345 7.568695,-11.782745 10,-19c2.632568,-7.814697 5,-14 7,-20c2,-6 1.789856,-9.07843 3,-12c0.855713,-2.065857 1.458801,-2.693436 2,-4c0.38269,-0.923874 0,-2 0,2c0,5 -1.54895,9.814011 -3,15c-1.639038,5.857773 -2.486267,9.823746 -3,12c-0.919006,3.89299 0,6 0,8c0,1 0,2 0,3c0,1 0,2 0,4c0,2 0,4 0,8c0,3 -0.38269,6.076126 0,7c0.541199,1.306564 2,1 3,1c3,0 6.404022,-1.41156 11,-5c1.114685,-0.870331 6.409668,-4.520126 10,-8c4.59787,-4.456421 7.345459,-10.808334 10,-16c3.467102,-6.780792 3.662323,-12.066147 5,-18c1.600983,-7.101898 3,-13 3,-16c0,-5 0,-9 0,-11c0,-2 -0.292908,-3.707108 -1,-3c-0.707092,0.707108 -2.475464,4.861938 -4,11c-1.466248,5.903397 -3.090027,15.990448 -4,25c-1.109924,10.989456 -2.492401,21.921768 -4,33c-1.48941,10.944489 -1.07135,20.171829 -3,28c-2.043915,8.295929 -3.261292,15.257446 -5,21c-2.089661,6.901688 -6.877655,12.06601 -8,14c-1.809723,3.118484 -2.812653,6.206802 -5,8c-2.78833,2.285873 -4.07843,3.789856 -7,5c-4.131714,1.711426 -6.127045,2.678619 -9,4c-5.297485,2.436493 -7,3 -10,3c-1,0 -4,0 -7,0c-2,0 -3.280273,-1.672852 -8,-6c-2.657654,-2.436584 -5.210052,-6.850754 -8,-11c-3.253601,-4.838806 -6.1604,-10.963287 -7,-15c-1.238617,-5.955322 -1,-9 -1,-13c0,-3 0.714111,-7.21167 3,-10c2.689789,-3.281006 6.305389,-4.361679 11,-7c4.358826,-2.449631 9.029968,-3.511261 13,-4c4.092224,-0.503769 9.907593,-1.414795 18,-3c6.939178,-1.359299 16,-1 23,-1c11,0 22.141693,1.092941 34,-1c11.22821,-1.981735 22,-4 33,-5c11,-1 19.235291,-2.369553 28,-6c6.197571,-2.567123 11.072754,-3.881897 16,-7c3.046753,-1.92807 6,-4 8,-6c1,-1 1.851929,-3.228363 3,-6c0.541199,-1.306564 1.972534,-2.647491 3,-7c0.459534,-1.946503 0,-6 0,-9c0,-4 0.68927,-7.080246 0,-10c-0.513733,-2.176254 -2.186035,-4.692551 -4,-6c-4.58905,-3.307617 -5.87854,-4.493462 -9,-5c-2.961243,-0.480545 -6,0 -9,0c-2,0 -4,0 -5,0c-5,0 -8,0 -11,0c-5,0 -9,0 -15,0c-4,0 -10.647095,0.674103 -14,2c-5.656555,2.236862 -8.812653,2.206802 -11,4c-2.78833,2.285873 -4.714111,2.21167 -7,5c-0.896606,1.093674 -3.486267,2.823746 -4,5c-0.68927,2.919754 -1.190277,4.881516 -3,8c-1.122345,1.93399 -1,5 -1,8c0,4 0,7 0,10c0,4 0,6 0,9c0,3 -0.765381,5.152237 0,7c0.541199,1.306564 2,3 3,4c1,1 3,1 4,1c1,0 4,0 6,0c2,0 6.025818,0.320358 8,0c3.12146,-0.506546 7.21167,-2.714127 10,-5c4.374695,-3.58638 5.679443,-4.571106 8,-9c2.935242,-5.602158 4.881897,-9.072784 8,-14c1.92804,-3.046722 4.955139,-5.549149 6,-9c1.159119,-3.828369 3.493469,-6.878555 4,-10c0.320374,-1.974182 2,-5 1,-5c-1,0 1.530762,3.304489 0,7c-1.082397,2.613129 -2,7 -2,10c0,4 0,8 0,11c0,3 0,7 0,10c0,3 0,5 0,6c0,3 1,4 1,6c0,1 1,1 2,1c1,0 1,-1 3,-2l0,-1l1,0" id="svg_2" stroke-width="9" stroke="#000" fill="none"/>
 </g>
</svg>